<svg version="1.2" xmlns="http://www.w3.org/2000/svg" viewBox="0 0 1554 207" width="1554" height="207">
	<title>semrush-svg</title>
	<style>
		.s0 { fill: #000000 } 
		.s1 { fill: #ff642d } 
	</style>
	<path id="Layer" fill-rule="evenodd" class="s0" d="m1036.8 123.1l35.9 42.8v2.9h-35.9l-36.9-45h-37.7v45h-31.8v-131.8h96.9c30 0 45.6 18.5 45.6 43.9 0 21.2-13.5 37.6-36.1 42.2zm5.6-42.3c0-10.4-7.3-16.4-18.6-16.4h-61.4v32.8h61.4c11.6 0 18.6-5.7 18.6-16.4zm511.6 88.1h-29.9v-52h-80.2v52h-32.2v-131.9h32.2v50.1h80.2v-50.1h29.9zm-653.2-131.9v131.9h-31.3v-108.3h-1.8l-35.6 108.3h-48.9l-35.5-108.3h-1.8v108.3h-30.4v-131.9h56.7l35.6 110.9h2l35.5-110.9zm-356 91.6c0 28.3-26.4 44.1-67.3 44.1-28.8 0-54.7-8.5-69.7-18.5v-30.4c18.7 11.9 44.9 20.4 70.7 20.4 25.4 0 35.5-5.5 35.5-14.5 0-6.5-4.2-11-18.5-12.1-13.2-1.1-32-2.8-43.1-3.9-30.5-3.4-45.7-15.7-45.7-38.1 0-26.6 25.9-42.2 63.5-42.2 26.7 0 48.2 4.5 67.7 13.8v29.4c-19.5-9.4-41.8-14.6-66-14.6-27.4 0-34.2 5.9-34.2 12.9 0 7.3 6.4 10.6 17.5 11.8 11.2 1.1 32.2 3.1 43.4 4.3 32.3 3.4 46.4 16.3 46.2 37.6zm144.1-91.6v27h-92.6v24.5h91v26.7h-91v26.7h92.6v27h-123v-131.9zm703.1 91.6c0 28.3-26.3 44.1-67.3 44.1-28.8 0-54.6-8.5-69.6-18.5v-30.4c18.6 11.9 44.8 20.4 70.7 20.4 25.4 0 35.4-5.5 35.4-14.5 0-6.5-4.1-11-18.5-12.1-13.2-1.1-31.9-2.8-43-3.9-30.5-3.4-45.8-15.7-45.8-38.1 0-26.6 26-42.2 63.5-42.2 26.8 0 48.3 4.5 67.7 13.8v29.4c-19.4-9.4-41.7-14.6-66-14.6-27.4 0-34.2 5.9-34.2 12.9 0 7.3 6.4 10.6 17.5 11.8 11.2 1.1 32.2 3.1 43.4 4.3 32.4 3.4 46.5 16.3 46.2 37.6zm-159.7-91.6v65.7c0 47.3-30.7 70-70.2 70-41.2 0-71.1-23.7-71.1-71.6v-64.1h31.7v67.1c0 26.2 15.4 40.1 38.9 40.1 23.3 0 38.8-14.1 38.8-39.7v-67.5z"/>
	<path id="Layer" fill-rule="evenodd" class="s1" d="m232 207c-41.5 0-78.4-9.3-114.8-24.8-27.2-11.6-47.7-24.2-60.5-35.8-1.5-1.4-2.7-3.3-2.7-4.7 0-2.6 1.8-4.3 4.9-4.3h56.2c4 0 5.7-1.8 5.8-4 0-2-1.1-3.8-4.5-5.4-19.9-9.5-44.9-23.2-65.2-35.8-23-14.5-38.9-27-48.9-37.5-1.6-1.6-2.3-3.3-2.3-5.3 0-2.3 1.7-4.7 5.3-4.7h122.6c3.8 0 5.8-1.7 5.8-4.4 0-2-1.3-3.5-4.9-5-8.3-3.4-16.7-6.9-27.3-12.2-11-5.5-19.3-10.5-25-14.9-1-0.8-2.2-2.2-2.2-3.8 0-2.8 2-4.4 5.1-4.4h154.4c77.7 0 111.4 52.5 111.4 102.2 0 46-34.6 104.8-113.2 104.8zm84.1-104.4c0-40.4-32.9-73-73.7-73-40.7 0-73.7 32.6-73.7 73 0 40.4 33 73 73.7 73 40.8 0 73.7-32.6 73.7-73zm-18.4-0.4c0 6.4-3.3 7.4-11.3 7.4-8.6 0-10.2-1.4-11.1-7.9-1.7-16.6-12.9-30.7-31.7-32.2-6-0.5-7.4-2.8-7.4-10.2 0-6.9 1-10.2 6.3-10.2 32.6 0.2 55.2 26.4 55.2 53.1z"/>
</svg>